<?xml version="1.0" encoding="UTF-8"?>
<svg width="600" height="400" viewBox="0 0 600 400" fill="none" xmlns="http://www.w3.org/2000/svg">
  <!-- Background elements -->
  <circle cx="300" cy="200" r="150" fill="#E5EAFF" opacity="0.5"/>
  
  <!-- Student figures -->
  <ellipse cx="220" cy="220" rx="60" ry="90" fill="#4A6BFF" opacity="0.2"/>
  <circle cx="220" cy="150" r="25" fill="#4A6BFF"/>
  <path d="M195 185C195 185 205 220 220 220C235 220 245 185 245 185" stroke="#4A6BFF" stroke-width="6"/>
  
  <ellipse cx="350" cy="220" rx="60" ry="90" fill="#28C76F" opacity="0.2"/>
  <circle cx="350" cy="150" r="25" fill="#28C76F"/>
  <path d="M325 185C325 185 335 220 350 220C365 220 375 185 375 185" stroke="#28C76F" stroke-width="6"/>
  
  <ellipse cx="480" cy="220" rx="60" ry="90" fill="#FF6B6B" opacity="0.2"/>
  <circle cx="480" cy="150" r="25" fill="#FF6B6B"/>
  <path d="M455 185C455 185 465 220 480 220C495 220 505 185 505 185" stroke="#FF6B6B" stroke-width="6"/>
  
  <!-- Brain/Education symbol -->
  <circle cx="300" cy="80" r="50" fill="#FFFFFF" stroke="#4A6BFF" stroke-width="3"/>
  
  <!-- Brain connections -->
  <path d="M280 60C280 60 290 75 300 75C310 75 320 60 320 60" stroke="#4A6BFF" stroke-width="3"/>
  <path d="M300 55V105" stroke="#4A6BFF" stroke-width="3"/>
  <path d="M270 70L330 90" stroke="#4A6BFF" stroke-width="3"/>
  <path d="M330 70L270 90" stroke="#4A6BFF" stroke-width="3"/>
  
  <!-- Connection lines between students and brain -->
  <line x1="260" y1="150" x2="285" y2="120" stroke="#4A6BFF" stroke-width="2" stroke-dasharray="5 5"/>
  <line x1="340" y1="150" x2="315" y2="120" stroke="#28C76F" stroke-width="2" stroke-dasharray="5 5"/>
  <line x1="450" y1="150" x2="340" y2="90" stroke="#FF6B6B" stroke-width="2" stroke-dasharray="5 5"/>
  
  <!-- Text lines for mission -->
  <rect x="100" y="290" width="400" height="5" rx="2.5" fill="#4A6BFF" opacity="0.3"/>
  <rect x="150" y="310" width="300" height="5" rx="2.5" fill="#4A6BFF" opacity="0.3"/>
  <rect x="200" y="330" width="200" height="5" rx="2.5" fill="#4A6BFF" opacity="0.3"/>
  
  <!-- Decorative elements -->
  <circle cx="120" cy="100" r="10" fill="#4A6BFF" opacity="0.1"/>
  <circle cx="140" cy="80" r="15" fill="#28C76F" opacity="0.1"/>
  <circle cx="100" cy="70" r="12" fill="#FF6B6B" opacity="0.1"/>
  
  <circle cx="500" cy="100" r="12" fill="#4A6BFF" opacity="0.1"/>
  <circle cx="520" cy="120" r="18" fill="#28C76F" opacity="0.1"/>
  <circle cx="480" cy="90" r="10" fill="#FF6B6B" opacity="0.1"/>
</svg>