<svg width="200" height="200" viewBox="0 0 200 200" fill="none" xmlns="http://www.w3.org/2000/svg">
  <!-- Background -->
  <circle cx="100" cy="100" r="80" fill="#E5EAFF" />
  
  <!-- Lightbulb -->
  <path d="M100 50C85 50 75 60 75 80C75 95 85 100 90 110H110C115 100 125 95 125 80C125 60 115 50 100 50Z" fill="#FFFFFF" stroke="#4A6BFF" stroke-width="3" />
  <rect x="90" y="110" width="20" height="10" rx="2" fill="#FFFFFF" stroke="#4A6BFF" stroke-width="3" />
  <rect x="93" y="120" width="14" height="5" rx="2" fill="#FFFFFF" stroke="#4A6BFF" stroke-width="3" />
  
  <!-- Light rays -->
  <path d="M100 40V30" stroke="#FF6B6B" stroke-width="3" stroke-linecap="round" />
  <path d="M80 55L70 45" stroke="#FF6B6B" stroke-width="3" stroke-linecap="round" />
  <path d="M120 55L130 45" stroke="#FF6B6B" stroke-width="3" stroke-linecap="round" />
  <path d="M75 80H65" stroke="#FF6B6B" stroke-width="3" stroke-linecap="round" />
  <path d="M125 80H135" stroke="#FF6B6B" stroke-width="3" stroke-linecap="round" />
  
  <!-- Study tips cards -->
  <rect x="50" y="130" width="40" height="30" rx="4" fill="white" stroke="#28C76F" stroke-width="2" transform="rotate(-5 50 130)" />
  <rect x="60" y="140" width="20" height="3" rx="1.5" fill="#28C76F" transform="rotate(-5 60 140)" />
  <rect x="60" y="147" width="15" height="3" rx="1.5" fill="#28C76F" transform="rotate(-5 60 147)" />
  
  <rect x="80" y="140" width="40" height="30" rx="4" fill="white" stroke="#28C76F" stroke-width="2" transform="rotate(5 80 140)" />
  <rect x="90" y="150" width="20" height="3" rx="1.5" fill="#28C76F" transform="rotate(5 90 150)" />
  <rect x="90" y="157" width="15" height="3" rx="1.5" fill="#28C76F" transform="rotate(5 90 157)" />
  
  <rect x="110" y="130" width="40" height="30" rx="4" fill="white" stroke="#28C76F" stroke-width="2" transform="rotate(-3 110 130)" />
  <rect x="120" y="140" width="20" height="3" rx="1.5" fill="#28C76F" transform="rotate(-3 120 140)" />
  <rect x="120" y="147" width="15" height="3" rx="1.5" fill="#28C76F" transform="rotate(-3 120 147)" />
  
  <!-- Brain icon -->
  <ellipse cx="100" cy="85" rx="15" ry="13" fill="#4A6BFF" opacity="0.3" />
  <path d="M93 80C93 80 95 85 100 85C105 85 107 80 107 80" stroke="#4A6BFF" stroke-width="2" />
  <path d="M100 78V92" stroke="#4A6BFF" stroke-width="2" />
  <path d="M95 78L105 92" stroke="#4A6BFF" stroke-width="2" />
  <path d="M105 78L95 92" stroke="#4A6BFF" stroke-width="2" />
</svg>
