<svg width="200" height="200" viewBox="0 0 200 200" fill="none" xmlns="http://www.w3.org/2000/svg">
  <!-- Background -->
  <circle cx="100" cy="100" r="80" fill="#E5EAFF" />
  
  <!-- Document outline -->
  <rect x="60" y="50" width="80" height="100" rx="4" fill="white" stroke="#4A6BFF" stroke-width="3" />
  
  <!-- Long text lines -->
  <rect x="70" y="60" width="60" height="3" rx="1.5" fill="#4A6BFF" />
  <rect x="70" y="68" width="50" height="3" rx="1.5" fill="#4A6BFF" />
  <rect x="70" y="76" width="55" height="3" rx="1.5" fill="#4A6BFF" />
  <rect x="70" y="84" width="40" height="3" rx="1.5" fill="#4A6BFF" />
  <rect x="70" y="92" width="60" height="3" rx="1.5" fill="#4A6BFF" />
  <rect x="70" y="100" width="45" height="3" rx="1.5" fill="#4A6BFF" />
  <rect x="70" y="108" width="55" height="3" rx="1.5" fill="#4A6BFF" />
  <rect x="70" y="116" width="60" height="3" rx="1.5" fill="#4A6BFF" />
  <rect x="70" y="124" width="50" height="3" rx="1.5" fill="#4A6BFF" />
  <rect x="70" y="132" width="55" height="3" rx="1.5" fill="#4A6BFF" />
  
  <!-- Summary document -->
  <rect x="100" y="80" width="60" height="70" rx="4" fill="white" stroke="#4A6BFF" stroke-width="3" transform="rotate(10 100 80)" />
  
  <!-- Shorter summary text lines -->
  <rect x="110" y="90" width="40" height="3" rx="1.5" fill="#4A6BFF" transform="rotate(10 110 90)" />
  <rect x="112" y="100" width="30" height="3" rx="1.5" fill="#4A6BFF" transform="rotate(10 112 100)" />
  <rect x="114" y="110" width="35" height="3" rx="1.5" fill="#4A6BFF" transform="rotate(10 114 110)" />
  <rect x="116" y="120" width="25" height="3" rx="1.5" fill="#4A6BFF" transform="rotate(10 116 120)" />
  
  <!-- Magic wand / transform symbol -->
  <path d="M115 60L120 65M125 50L130 55M135 40L140 45" stroke="#FF6B6B" stroke-width="2" stroke-linecap="round" />
  <circle cx="120" cy="65" r="3" fill="#FF6B6B" />
  <circle cx="130" cy="55" r="3" fill="#FF6B6B" />
  <circle cx="140" cy="45" r="3" fill="#FF6B6B" />
</svg>
