<svg width="600" height="400" viewBox="0 0 600 400" fill="none" xmlns="http://www.w3.org/2000/svg">
  <!-- Background elements -->
  <circle cx="300" cy="200" r="150" fill="#E5EAFF" opacity="0.5" />
  <circle cx="300" cy="200" r="100" fill="#E5EAFF" opacity="0.8" />
  
  <!-- Student figure -->
  <ellipse cx="260" cy="220" rx="70" ry="100" fill="#4A6BFF" opacity="0.2" />
  <circle cx="260" cy="150" r="30" fill="#4A6BFF" />
  <path d="M230 190C230 190 240 230 260 230C280 230 290 190 290 190" stroke="#4A6BFF" stroke-width="8" />
  
  <!-- Digital device (laptop) -->
  <rect x="330" y="180" width="120" height="80" rx="4" fill="#333333" />
  <rect x="335" y="185" width="110" height="70" rx="2" fill="#FFFFFF" />
  <rect x="330" y="260" width="120" height="10" rx="4" fill="#333333" />
  
  <!-- AI visualization on screen -->
  <circle cx="390" cy="220" r="25" fill="#4A6BFF" opacity="0.2" />
  <path d="M375 215C375 215 385 230 390 230C395 230 405 215 405 215" stroke="#4A6BFF" stroke-width="3" />
  <circle cx="380" cy="210" r="3" fill="#4A6BFF" />
  <circle cx="400" cy="210" r="3" fill="#4A6BFF" />
  
  <!-- AI connections -->
  <line x1="350" y1="200" x2="370" y2="200" stroke="#4A6BFF" stroke-width="2" />
  <line x1="410" y1="200" x2="430" y2="200" stroke="#4A6BFF" stroke-width="2" />
  <line x1="350" y1="210" x2="365" y2="210" stroke="#4A6BFF" stroke-width="2" />
  <line x1="415" y1="210" x2="430" y2="210" stroke="#4A6BFF" stroke-width="2" />
  <line x1="350" y1="220" x2="360" y2="220" stroke="#4A6BFF" stroke-width="2" />
  <line x1="420" y1="220" x2="430" y2="220" stroke="#4A6BFF" stroke-width="2" />
  
  <!-- Thought bubbles -->
  <circle cx="200" cy="100" r="20" fill="#FFFFFF" stroke="#4A6BFF" stroke-width="2" />
  <circle cx="170" cy="80" r="15" fill="#FFFFFF" stroke="#4A6BFF" stroke-width="2" />
  <circle cx="150" cy="60" r="10" fill="#FFFFFF" stroke="#4A6BFF" stroke-width="2" />
  
  <!-- Educational icons -->
  <rect x="190" cy="90" width="20" height="20" rx="2" fill="#28C76F" opacity="0.8" />
  <circle cx="170" cy="80" r="8" fill="#FF6B6B" opacity="0.8" />
  <polygon points="150,55 155,65 145,65" fill="#4A6BFF" opacity="0.8" />
  
  <!-- Decorative elements -->
  <circle cx="450" cy="100" r="10" fill="#4A6BFF" opacity="0.1" />
  <circle cx="470" cy="120" r="15" fill="#28C76F" opacity="0.1" />
  <circle cx="490" cy="90" r="12" fill="#FF6B6B" opacity="0.1" />
  <circle cx="150" cy="300" r="14" fill="#4A6BFF" opacity="0.1" />
  <circle cx="120" cy="280" r="18" fill="#28C76F" opacity="0.1" />
  <circle cx="170" cy="320" r="12" fill="#FF6B6B" opacity="0.1" />
</svg>
